<?xml version="1.0"?>
<svg width="74" height="24" xmlns="http://www.w3.org/2000/svg" xmlns:svg="http://www.w3.org/2000/svg" xmlns:xlink="http://www.w3.org/1999/xlink">
 <title>Vanilla</title>
 <defs>
  <symbol id="svg_2" viewBox="0 0 24 24" xmlns="http://www.w3.org/2000/svg">
   <title>CSS</title>
   <path d="m0,0l0,20.16a3.84,3.84 0 0 0 3.84,3.84l16.32,0a3.84,3.84 0 0 0 3.84,-3.84l0,-16.32a3.84,3.84 0 0 0 -3.84,-3.84l-20.16,0zm14.26,13.08c1.56,0 2.28,1.08 2.3,2.64l-1.61,0c0.03,-0.29 -0.05,-0.6 -0.14,-0.84c-0.1,-0.19 -0.29,-0.26 -0.55,-0.26c-0.46,0 -0.7,0.26 -0.7,0.84c-0.02,0.57 0.29,0.88 0.77,1.08c0.72,0.28 1.61,0.74 1.92,1.29q0.43,0.65 0.43,1.66c0,1.61 -0.91,2.59 -2.5,2.59c-1.65,0 -2.4,-1.03 -2.42,-2.69l1.68,0c0,0.79 0.26,1.18 0.79,1.18c0.27,0 0.46,-0.07 0.55,-0.24c0.2,-0.31 0.24,-1.18 -0.04,-1.51c-0.32,-0.41 -0.92,-0.6 -1.32,-0.82q-0.83,-0.4 -1.23,-0.94c-0.24,-0.36 -0.36,-0.88 -0.36,-1.53c0,-1.44 0.94,-2.47 2.43,-2.45m5.4,0c1.58,0 2.3,1.08 2.32,2.64l-1.6,0c0,-0.29 -0.05,-0.6 -0.17,-0.84c-0.1,-0.19 -0.27,-0.26 -0.53,-0.26c-0.48,0 -0.72,0.26 -0.72,0.84s0.29,0.88 0.79,1.08c0.7,0.28 1.61,0.74 1.92,1.29c0.27,0.43 0.41,0.99 0.41,1.66c0.02,1.61 -0.89,2.59 -2.47,2.59c-1.68,0 -2.43,-1.06 -2.45,-2.69l1.68,0c0,0.75 0.26,1.18 0.79,1.18c0.27,0 0.46,-0.07 0.55,-0.24c0.22,-0.31 0.27,-1.18 -0.04,-1.51c-0.29,-0.41 -0.89,-0.6 -1.32,-0.82c-0.56,-0.26 -0.96,-0.58 -1.2,-0.94s-0.36,-0.88 -0.36,-1.53c-0.03,-1.44 0.91,-2.47 2.4,-2.45m-11.04,0.02c0.72,-0.01 1.42,0.2 1.84,0.63c0.44,0.43 0.68,1.13 0.65,1.99l-1.77,0c0.02,-0.46 -0.1,-0.79 -0.44,-0.96c-0.31,-0.14 -0.76,-0.05 -0.88,0.24c-0.12,0.26 -0.2,0.58 -0.17,0.86l0,3.51c0,0.74 0.26,1.13 0.77,1.13a0.65,0.65 0 0 0 0.55,-0.27c0.17,-0.24 0.19,-0.55 0.17,-0.84l1.77,0c0.1,1.63 -0.98,2.71 -2.57,2.69c-1.53,0 -2.49,-0.86 -2.47,-2.47l0,-4.03c0,-0.82 0.24,-1.44 0.7,-1.85c0.43,-0.41 1.14,-0.63 1.86,-0.63"/>
  </symbol>
  <symbol id="svg_8" viewBox="0 0 24 24" xmlns="http://www.w3.org/2000/svg">
   <title>JavaScript</title>
   <path d="m0,0l24,0l0,24l-24,0l0,-24zm22.03,18.28c-0.17,-1.1 -0.88,-2.02 -3,-2.88c-0.74,-0.34 -1.55,-0.58 -1.8,-1.14c-0.09,-0.33 -0.1,-0.51 -0.04,-0.7c0.15,-0.65 0.91,-0.84 1.51,-0.66c0.39,0.12 0.75,0.42 0.98,0.9c1.03,-0.68 1.03,-0.68 1.75,-1.13c-0.27,-0.42 -0.4,-0.6 -0.58,-0.78c-0.63,-0.7 -1.47,-1.06 -2.84,-1.03l-0.7,0.09c-0.68,0.16 -1.32,0.52 -1.71,1c-1.14,1.29 -0.81,3.54 0.57,4.47c1.36,1.02 3.36,1.25 3.61,2.21c0.24,1.17 -0.87,1.54 -1.96,1.41c-0.81,-0.18 -1.26,-0.59 -1.76,-1.34l-1.83,1.05c0.21,0.48 0.45,0.69 0.81,1.11c1.74,1.76 6.09,1.67 6.87,-1c0.03,-0.09 0.24,-0.71 0.08,-1.65l0.04,0.07zm-8.98,-7.25l-2.25,0c0,1.94 -0.01,3.86 -0.01,5.81c0,1.23 0.07,2.36 -0.13,2.71c-0.33,0.69 -1.18,0.6 -1.57,0.48c-0.4,-0.2 -0.6,-0.47 -0.83,-0.86c-0.06,-0.1 -0.11,-0.19 -0.13,-0.19l-1.82,1.12c0.3,0.63 0.75,1.17 1.32,1.52c0.86,0.51 2.01,0.67 3.21,0.4c0.78,-0.22 1.46,-0.69 1.81,-1.41c0.51,-0.93 0.4,-2.07 0.4,-3.34c0.01,-2.06 0,-4.11 0,-6.18l0,-0.06z"/>
  </symbol>
 </defs>
 <g class="layer">
  <title>Layer 1</title>
  <path d="m0.09,0l21,0l-1.91,21.56l-8.61,2.44l-8.57,-2.44l-1.91,-21.56zm7.03,9.75l-0.23,-2.72l10.06,0.01l0.23,-2.63l-13.18,0l0.7,8.01l9.13,0l-0.33,3.43l-2.91,0.8l-2.96,-0.81l-0.18,-2.11l-2.61,0l0.33,4.17l5.42,1.45l5.38,-1.44l0.74,-8.16l-9.59,0z" id="svg_1"/>
  <use id="svg_4" stroke-width="5" transform="matrix(0.996844 0 0 0.996844 -36.5492 29.3585)" x="35.22" xlink:href="#svg_2" y="-29.42"/>
  <use id="svg_9" transform="matrix(0.998314 0 0 0.998314 40.9999 84.8795)" x="-16" xlink:href="#svg_8" y="-85.02"/>
 </g>
</svg>