<svg id="visual" viewBox="0 0 450 900" width="450" height="900" xmlns="http://www.w3.org/2000/svg" xmlns:xlink="http://www.w3.org/1999/xlink" version="1.1"><rect x="0" y="0" width="450" height="900" fill="#071A28"></rect><defs><linearGradient id="grad1_0" x1="0%" y1="100%" x2="100%" y2="0%"><stop offset="30%" stop-color="#008c70" stop-opacity="1"></stop><stop offset="70%" stop-color="#008c70" stop-opacity="1"></stop></linearGradient></defs><defs><linearGradient id="grad1_1" x1="0%" y1="100%" x2="100%" y2="0%"><stop offset="30%" stop-color="#008c70" stop-opacity="1"></stop><stop offset="70%" stop-color="#006469" stop-opacity="1"></stop></linearGradient></defs><defs><linearGradient id="grad1_2" x1="0%" y1="100%" x2="100%" y2="0%"><stop offset="30%" stop-color="#003d4f" stop-opacity="1"></stop><stop offset="70%" stop-color="#006469" stop-opacity="1"></stop></linearGradient></defs><defs><linearGradient id="grad1_3" x1="0%" y1="100%" x2="100%" y2="0%"><stop offset="30%" stop-color="#003d4f" stop-opacity="1"></stop><stop offset="70%" stop-color="#071a28" stop-opacity="1"></stop></linearGradient></defs><defs><linearGradient id="grad2_0" x1="0%" y1="100%" x2="100%" y2="0%"><stop offset="30%" stop-color="#008c70" stop-opacity="1"></stop><stop offset="70%" stop-color="#008c70" stop-opacity="1"></stop></linearGradient></defs><defs><linearGradient id="grad2_1" x1="0%" y1="100%" x2="100%" y2="0%"><stop offset="30%" stop-color="#006469" stop-opacity="1"></stop><stop offset="70%" stop-color="#008c70" stop-opacity="1"></stop></linearGradient></defs><defs><linearGradient id="grad2_2" x1="0%" y1="100%" x2="100%" y2="0%"><stop offset="30%" stop-color="#006469" stop-opacity="1"></stop><stop offset="70%" stop-color="#003d4f" stop-opacity="1"></stop></linearGradient></defs><defs><linearGradient id="grad2_3" x1="0%" y1="100%" x2="100%" y2="0%"><stop offset="30%" stop-color="#071a28" stop-opacity="1"></stop><stop offset="70%" stop-color="#003d4f" stop-opacity="1"></stop></linearGradient></defs><g transform="translate(450, 900)"><path d="M-337.5 0C-309.2 -28.8 -280.9 -57.6 -268.2 -87.1C-255.5 -116.7 -258.4 -147 -251.6 -182.8C-244.8 -218.6 -228.3 -260 -198.4 -273C-168.5 -286.1 -125.2 -270.7 -89.9 -276.8C-54.6 -282.8 -27.3 -310.1 0 -337.5L0 0Z" fill="#002b3c"></path><path d="M-253.1 0C-231.9 -21.6 -210.7 -43.2 -201.1 -65.4C-191.6 -87.5 -193.8 -110.2 -188.7 -137.1C-183.6 -164 -171.2 -195 -148.8 -204.8C-126.4 -214.6 -93.9 -203.1 -67.4 -207.6C-41 -212.1 -20.5 -232.6 0 -253.1L0 0Z" fill="#00505e"></path><path d="M-168.7 0C-154.6 -14.4 -140.4 -28.8 -134.1 -43.6C-127.8 -58.3 -129.2 -73.5 -125.8 -91.4C-122.4 -109.3 -114.1 -130 -99.2 -136.5C-84.2 -143 -62.6 -135.4 -45 -138.4C-27.3 -141.4 -13.7 -155.1 0 -168.7L0 0Z" fill="#00786f"></path><path d="M-84.4 0C-77.3 -7.2 -70.2 -14.4 -67 -21.8C-63.9 -29.2 -64.6 -36.7 -62.9 -45.7C-61.2 -54.7 -57.1 -65 -49.6 -68.3C-42.1 -71.5 -31.3 -67.7 -22.5 -69.2C-13.7 -70.7 -6.8 -77.5 0 -84.4L0 0Z" fill="#008c70"></path></g><g transform="translate(0, 0)"><path d="M337.5 0C328.1 34.7 318.8 69.4 302.4 98.3C286.1 127.2 262.7 150.3 244.3 177.5C225.9 204.7 212.6 236 190.4 262.1C168.3 288.3 137.5 309.3 104.3 321C71.1 332.7 35.5 335.1 0 337.5L0 0Z" fill="#002b3c"></path><path d="M253.1 0C246.1 26 239.1 52 226.8 73.7C214.6 95.4 197 112.7 183.2 133.1C169.5 153.5 159.4 177 142.8 196.6C126.2 216.2 103.1 232 78.2 240.7C53.3 249.5 26.7 251.3 0 253.1L0 0Z" fill="#00505e"></path><path d="M168.8 0C164.1 17.3 159.4 34.7 151.2 49.1C143 63.6 131.4 75.2 122.2 88.8C113 102.4 106.3 118 95.2 131.1C84.2 144.1 68.7 154.6 52.1 160.5C35.5 166.3 17.8 167.5 0 168.8L0 0Z" fill="#00786f"></path><path d="M84.4 0C82 8.7 79.7 17.3 75.6 24.6C71.5 31.8 65.7 37.6 61.1 44.4C56.5 51.2 53.1 59 47.6 65.5C42.1 72.1 34.4 77.3 26.1 80.2C17.8 83.2 8.9 83.8 0 84.4L0 0Z" fill="#008c70"></path></g></svg>