<svg id="visual" viewBox="0 0 960 540" width="960" height="540" xmlns="http://www.w3.org/2000/svg" xmlns:xlink="http://www.w3.org/1999/xlink" version="1.1"><rect x="0" y="0" width="960" height="540" fill="#071A28"></rect><defs><linearGradient id="grad1_0" x1="43.8%" y1="100%" x2="100%" y2="0%"><stop offset="14.444444444444446%" stop-color="#008c70" stop-opacity="1"></stop><stop offset="85.55555555555554%" stop-color="#008c70" stop-opacity="1"></stop></linearGradient></defs><defs><linearGradient id="grad1_1" x1="43.8%" y1="100%" x2="100%" y2="0%"><stop offset="14.444444444444446%" stop-color="#008c70" stop-opacity="1"></stop><stop offset="85.55555555555554%" stop-color="#00786f" stop-opacity="1"></stop></linearGradient></defs><defs><linearGradient id="grad1_2" x1="43.8%" y1="100%" x2="100%" y2="0%"><stop offset="14.444444444444446%" stop-color="#006469" stop-opacity="1"></stop><stop offset="85.55555555555554%" stop-color="#00786f" stop-opacity="1"></stop></linearGradient></defs><defs><linearGradient id="grad1_3" x1="43.8%" y1="100%" x2="100%" y2="0%"><stop offset="14.444444444444446%" stop-color="#006469" stop-opacity="1"></stop><stop offset="85.55555555555554%" stop-color="#00505e" stop-opacity="1"></stop></linearGradient></defs><defs><linearGradient id="grad1_4" x1="43.8%" y1="100%" x2="100%" y2="0%"><stop offset="14.444444444444446%" stop-color="#003d4f" stop-opacity="1"></stop><stop offset="85.55555555555554%" stop-color="#00505e" stop-opacity="1"></stop></linearGradient></defs><defs><linearGradient id="grad1_5" x1="43.8%" y1="100%" x2="100%" y2="0%"><stop offset="14.444444444444446%" stop-color="#003d4f" stop-opacity="1"></stop><stop offset="85.55555555555554%" stop-color="#002b3c" stop-opacity="1"></stop></linearGradient></defs><defs><linearGradient id="grad1_6" x1="43.8%" y1="100%" x2="100%" y2="0%"><stop offset="14.444444444444446%" stop-color="#071a28" stop-opacity="1"></stop><stop offset="85.55555555555554%" stop-color="#002b3c" stop-opacity="1"></stop></linearGradient></defs><defs><linearGradient id="grad2_0" x1="0%" y1="100%" x2="56.3%" y2="0%"><stop offset="14.444444444444446%" stop-color="#008c70" stop-opacity="1"></stop><stop offset="85.55555555555554%" stop-color="#008c70" stop-opacity="1"></stop></linearGradient></defs><defs><linearGradient id="grad2_1" x1="0%" y1="100%" x2="56.3%" y2="0%"><stop offset="14.444444444444446%" stop-color="#00786f" stop-opacity="1"></stop><stop offset="85.55555555555554%" stop-color="#008c70" stop-opacity="1"></stop></linearGradient></defs><defs><linearGradient id="grad2_2" x1="0%" y1="100%" x2="56.3%" y2="0%"><stop offset="14.444444444444446%" stop-color="#00786f" stop-opacity="1"></stop><stop offset="85.55555555555554%" stop-color="#006469" stop-opacity="1"></stop></linearGradient></defs><defs><linearGradient id="grad2_3" x1="0%" y1="100%" x2="56.3%" y2="0%"><stop offset="14.444444444444446%" stop-color="#00505e" stop-opacity="1"></stop><stop offset="85.55555555555554%" stop-color="#006469" stop-opacity="1"></stop></linearGradient></defs><defs><linearGradient id="grad2_4" x1="0%" y1="100%" x2="56.3%" y2="0%"><stop offset="14.444444444444446%" stop-color="#00505e" stop-opacity="1"></stop><stop offset="85.55555555555554%" stop-color="#003d4f" stop-opacity="1"></stop></linearGradient></defs><defs><linearGradient id="grad2_5" x1="0%" y1="100%" x2="56.3%" y2="0%"><stop offset="14.444444444444446%" stop-color="#002b3c" stop-opacity="1"></stop><stop offset="85.55555555555554%" stop-color="#003d4f" stop-opacity="1"></stop></linearGradient></defs><defs><linearGradient id="grad2_6" x1="0%" y1="100%" x2="56.3%" y2="0%"><stop offset="14.444444444444446%" stop-color="#002b3c" stop-opacity="1"></stop><stop offset="85.55555555555554%" stop-color="#071a28" stop-opacity="1"></stop></linearGradient></defs><g transform="translate(960, 540)"><path d="M-405 0C-383.4 -47.4 -361.8 -94.8 -342.8 -142C-323.7 -189.1 -307.3 -236 -277.2 -277.2C-247.1 -318.4 -203.5 -353.8 -155 -374.2C-106.5 -394.5 -53.3 -399.8 0 -405L0 0Z" fill="#042232"></path><path d="M-347.1 0C-328.6 -40.6 -310.1 -81.3 -293.8 -121.7C-277.5 -162.1 -263.4 -202.3 -237.6 -237.6C-211.8 -272.9 -174.4 -303.3 -132.8 -320.7C-91.3 -338.2 -45.7 -342.7 0 -347.1L0 0Z" fill="#003446"></path><path d="M-289.3 0C-273.9 -33.9 -258.4 -67.7 -244.8 -101.4C-231.2 -135.1 -219.5 -168.6 -198 -198C-176.5 -227.4 -145.3 -252.7 -110.7 -267.3C-76.1 -281.8 -38 -285.5 0 -289.3L0 0Z" fill="#004757"></path><path d="M-231.4 0C-219.1 -27.1 -206.7 -54.2 -195.9 -81.1C-185 -108.1 -175.6 -134.9 -158.4 -158.4C-141.2 -181.9 -116.3 -202.2 -88.6 -213.8C-60.9 -225.4 -30.4 -228.4 0 -231.4L0 0Z" fill="#005a64"></path><path d="M-173.6 0C-164.3 -20.3 -155.1 -40.6 -146.9 -60.8C-138.7 -81.1 -131.7 -101.1 -118.8 -118.8C-105.9 -136.4 -87.2 -151.6 -66.4 -160.4C-45.7 -169.1 -22.8 -171.3 0 -173.6L0 0Z" fill="#006e6c"></path><path d="M-115.7 0C-109.5 -13.5 -103.4 -27.1 -97.9 -40.6C-92.5 -54 -87.8 -67.4 -79.2 -79.2C-70.6 -91 -58.1 -101.1 -44.3 -106.9C-30.4 -112.7 -15.2 -114.2 0 -115.7L0 0Z" fill="#008270"></path><path d="M-57.9 0C-54.8 -6.8 -51.7 -13.5 -49 -20.3C-46.2 -27 -43.9 -33.7 -39.6 -39.6C-35.3 -45.5 -29.1 -50.5 -22.1 -53.5C-15.2 -56.4 -7.6 -57.1 0 -57.9L0 0Z" fill="#008c70"></path></g><g transform="translate(0, 0)"><path d="M405 0C383 47.3 361 94.6 341.8 141.6C322.7 188.6 306.3 235.2 276.5 276.5C246.6 317.7 203.3 353.6 155 374.2C106.7 394.7 53.3 399.8 0 405L0 0Z" fill="#042232"></path><path d="M347.1 0C328.3 40.6 309.4 81.1 293 121.4C276.6 161.6 262.6 201.6 237 237C211.4 272.4 174.3 303.1 132.8 320.7C91.4 338.3 45.7 342.7 0 347.1L0 0Z" fill="#003446"></path><path d="M289.3 0C273.6 33.8 257.9 67.6 244.2 101.1C230.5 134.7 218.8 168 197.5 197.5C176.2 227 145.2 252.6 110.7 267.3C76.2 281.9 38.1 285.6 0 289.3L0 0Z" fill="#004757"></path><path d="M231.4 0C218.9 27 206.3 54.1 195.3 80.9C184.4 107.8 175 134.4 158 158C140.9 181.6 116.2 202.1 88.6 213.8C60.9 225.5 30.5 228.5 0 231.4L0 0Z" fill="#005a64"></path><path d="M173.6 0C164.1 20.3 154.7 40.6 146.5 60.7C138.3 80.8 131.3 100.8 118.5 118.5C105.7 136.2 87.1 151.6 66.4 160.4C45.7 169.2 22.9 171.4 0 173.6L0 0Z" fill="#006e6c"></path><path d="M115.7 0C109.4 13.5 103.1 27 97.7 40.5C92.2 53.9 87.5 67.2 79 79C70.5 90.8 58.1 101 44.3 106.9C30.5 112.8 15.2 114.2 0 115.7L0 0Z" fill="#008270"></path><path d="M57.9 0C54.7 6.8 51.6 13.5 48.8 20.2C46.1 26.9 43.8 33.6 39.5 39.5C35.2 45.4 29 50.5 22.1 53.5C15.2 56.4 7.6 57.1 0 57.9L0 0Z" fill="#008c70"></path></g></svg>