<svg id="visual" viewBox="0 0 900 600" width="900" height="600" xmlns="http://www.w3.org/2000/svg" xmlns:xlink="http://www.w3.org/1999/xlink" version="1.1"><rect x="0" y="0" width="900" height="600" fill="#001220"></rect><defs><linearGradient id="grad1_0" x1="33.3%" y1="100%" x2="100%" y2="0%"><stop offset="20%" stop-color="#e4e12f" stop-opacity="1"></stop><stop offset="80%" stop-color="#e4e12f" stop-opacity="1"></stop></linearGradient></defs><defs><linearGradient id="grad1_1" x1="33.3%" y1="100%" x2="100%" y2="0%"><stop offset="20%" stop-color="#e4e12f" stop-opacity="1"></stop><stop offset="80%" stop-color="#6ac151" stop-opacity="1"></stop></linearGradient></defs><defs><linearGradient id="grad1_2" x1="33.3%" y1="100%" x2="100%" y2="0%"><stop offset="20%" stop-color="#00976b" stop-opacity="1"></stop><stop offset="80%" stop-color="#6ac151" stop-opacity="1"></stop></linearGradient></defs><defs><linearGradient id="grad1_3" x1="33.3%" y1="100%" x2="100%" y2="0%"><stop offset="20%" stop-color="#00976b" stop-opacity="1"></stop><stop offset="80%" stop-color="#00686d" stop-opacity="1"></stop></linearGradient></defs><defs><linearGradient id="grad1_4" x1="33.3%" y1="100%" x2="100%" y2="0%"><stop offset="20%" stop-color="#003b50" stop-opacity="1"></stop><stop offset="80%" stop-color="#00686d" stop-opacity="1"></stop></linearGradient></defs><defs><linearGradient id="grad1_5" x1="33.3%" y1="100%" x2="100%" y2="0%"><stop offset="20%" stop-color="#003b50" stop-opacity="1"></stop><stop offset="80%" stop-color="#001220" stop-opacity="1"></stop></linearGradient></defs><defs><linearGradient id="grad2_0" x1="0%" y1="100%" x2="66.7%" y2="0%"><stop offset="20%" stop-color="#e4e12f" stop-opacity="1"></stop><stop offset="80%" stop-color="#e4e12f" stop-opacity="1"></stop></linearGradient></defs><defs><linearGradient id="grad2_1" x1="0%" y1="100%" x2="66.7%" y2="0%"><stop offset="20%" stop-color="#6ac151" stop-opacity="1"></stop><stop offset="80%" stop-color="#e4e12f" stop-opacity="1"></stop></linearGradient></defs><defs><linearGradient id="grad2_2" x1="0%" y1="100%" x2="66.7%" y2="0%"><stop offset="20%" stop-color="#6ac151" stop-opacity="1"></stop><stop offset="80%" stop-color="#00976b" stop-opacity="1"></stop></linearGradient></defs><defs><linearGradient id="grad2_3" x1="0%" y1="100%" x2="66.7%" y2="0%"><stop offset="20%" stop-color="#00686d" stop-opacity="1"></stop><stop offset="80%" stop-color="#00976b" stop-opacity="1"></stop></linearGradient></defs><defs><linearGradient id="grad2_4" x1="0%" y1="100%" x2="66.7%" y2="0%"><stop offset="20%" stop-color="#00686d" stop-opacity="1"></stop><stop offset="80%" stop-color="#003b50" stop-opacity="1"></stop></linearGradient></defs><defs><linearGradient id="grad2_5" x1="0%" y1="100%" x2="66.7%" y2="0%"><stop offset="20%" stop-color="#001220" stop-opacity="1"></stop><stop offset="80%" stop-color="#003b50" stop-opacity="1"></stop></linearGradient></defs><g transform="translate(900, 600)"><path d="M-432.7 0C-430.2 -46.7 -427.6 -93.5 -411.5 -133.7C-395.3 -173.9 -365.5 -207.7 -338.2 -245.7C-310.8 -283.7 -285.9 -325.9 -248 -341.4C-210.2 -357 -159.4 -345.9 -115.9 -356.6C-72.4 -367.4 -36.2 -400 0 -432.7L0 0Z" fill="#002639"></path><path d="M-360.6 0C-358.5 -38.9 -356.4 -77.9 -342.9 -111.4C-329.4 -145 -304.6 -173.1 -281.8 -204.7C-259 -236.4 -238.3 -271.5 -206.7 -284.5C-175.2 -297.5 -132.8 -288.2 -96.6 -297.2C-60.3 -306.2 -30.2 -333.4 0 -360.6L0 0Z" fill="#005162"></path><path d="M-288.4 0C-286.8 -31.2 -285.1 -62.3 -274.3 -89.1C-263.6 -116 -243.7 -138.5 -225.4 -163.8C-207.2 -189.1 -190.6 -217.2 -165.4 -227.6C-140.1 -238 -106.3 -230.6 -77.3 -237.8C-48.3 -244.9 -24.1 -266.7 0 -288.4L0 0Z" fill="#008070"></path><path d="M-216.3 0C-215.1 -23.4 -213.8 -46.7 -205.7 -66.9C-197.7 -87 -182.8 -103.9 -169.1 -122.8C-155.4 -141.8 -143 -162.9 -124 -170.7C-105.1 -178.5 -79.7 -172.9 -57.9 -178.3C-36.2 -183.7 -18.1 -200 0 -216.3L0 0Z" fill="#25ad60"></path><path d="M-144.2 0C-143.4 -15.6 -142.5 -31.2 -137.2 -44.6C-131.8 -58 -121.8 -69.2 -112.7 -81.9C-103.6 -94.6 -95.3 -108.6 -82.7 -113.8C-70.1 -119 -53.1 -115.3 -38.6 -118.9C-24.1 -122.5 -12.1 -133.3 0 -144.2L0 0Z" fill="#a6d33e"></path><path d="M-72.1 0C-71.7 -7.8 -71.3 -15.6 -68.6 -22.3C-65.9 -29 -60.9 -34.6 -56.4 -40.9C-51.8 -47.3 -47.7 -54.3 -41.3 -56.9C-35 -59.5 -26.6 -57.6 -19.3 -59.4C-12.1 -61.2 -6 -66.7 0 -72.1L0 0Z" fill="#e4e12f"></path></g><g transform="translate(0, 0)"><path d="M432.7 0C392.8 35.5 353 71 336.7 109.4C320.4 147.8 327.6 189 319.6 232.2C311.6 275.4 288.3 320.6 254.3 350C220.3 379.5 175.5 393.1 131.3 404.2C87.1 415.3 43.6 424 0 432.7L0 0Z" fill="#002639"></path><path d="M360.6 0C327.4 29.6 294.2 59.2 280.6 91.2C267 123.1 273 157.5 266.3 193.5C259.6 229.5 240.3 267.2 211.9 291.7C183.6 316.2 146.3 327.6 109.4 336.8C72.6 346.1 36.3 353.3 0 360.6L0 0Z" fill="#005162"></path><path d="M288.4 0C261.9 23.7 235.3 47.4 224.4 72.9C213.6 98.5 218.4 126 213 154.8C207.7 183.6 192.2 213.7 169.5 233.4C146.9 253 117 262 87.6 269.5C58.1 276.9 29 282.7 0 288.4L0 0Z" fill="#008070"></path><path d="M216.3 0C196.4 17.8 176.5 35.5 168.3 54.7C160.2 73.9 163.8 94.5 159.8 116.1C155.8 137.7 144.2 160.3 127.2 175C110.2 189.7 87.8 196.5 65.7 202.1C43.6 207.7 21.8 212 0 216.3L0 0Z" fill="#25ad60"></path><path d="M144.2 0C130.9 11.8 117.7 23.7 112.2 36.5C106.8 49.3 109.2 63 106.5 77.4C103.9 91.8 96.1 106.9 84.8 116.7C73.4 126.5 58.5 131 43.8 134.7C29 138.4 14.5 141.3 0 144.2L0 0Z" fill="#a6d33e"></path><path d="M72.1 0C65.5 5.9 58.8 11.8 56.1 18.2C53.4 24.6 54.6 31.5 53.3 38.7C51.9 45.9 48.1 53.4 42.4 58.3C36.7 63.2 29.3 65.5 21.9 67.4C14.5 69.2 7.3 70.7 0 72.1L0 0Z" fill="#e4e12f"></path></g></svg>