<svg id="visual" viewBox="0 0 900 900" width="900" height="900" xmlns="http://www.w3.org/2000/svg" xmlns:xlink="http://www.w3.org/1999/xlink" version="1.1"><rect x="0" y="0" width="900" height="900" fill="#071A28"></rect><defs><linearGradient id="grad1_0" x1="0%" y1="100%" x2="100%" y2="0%"><stop offset="30%" stop-color="#008c70" stop-opacity="1"></stop><stop offset="70%" stop-color="#008c70" stop-opacity="1"></stop></linearGradient></defs><defs><linearGradient id="grad1_1" x1="0%" y1="100%" x2="100%" y2="0%"><stop offset="30%" stop-color="#008c70" stop-opacity="1"></stop><stop offset="70%" stop-color="#00786f" stop-opacity="1"></stop></linearGradient></defs><defs><linearGradient id="grad1_2" x1="0%" y1="100%" x2="100%" y2="0%"><stop offset="30%" stop-color="#006469" stop-opacity="1"></stop><stop offset="70%" stop-color="#00786f" stop-opacity="1"></stop></linearGradient></defs><defs><linearGradient id="grad1_3" x1="0%" y1="100%" x2="100%" y2="0%"><stop offset="30%" stop-color="#006469" stop-opacity="1"></stop><stop offset="70%" stop-color="#00505e" stop-opacity="1"></stop></linearGradient></defs><defs><linearGradient id="grad1_4" x1="0%" y1="100%" x2="100%" y2="0%"><stop offset="30%" stop-color="#003d4f" stop-opacity="1"></stop><stop offset="70%" stop-color="#00505e" stop-opacity="1"></stop></linearGradient></defs><defs><linearGradient id="grad1_5" x1="0%" y1="100%" x2="100%" y2="0%"><stop offset="30%" stop-color="#003d4f" stop-opacity="1"></stop><stop offset="70%" stop-color="#002b3c" stop-opacity="1"></stop></linearGradient></defs><defs><linearGradient id="grad1_6" x1="0%" y1="100%" x2="100%" y2="0%"><stop offset="30%" stop-color="#071a28" stop-opacity="1"></stop><stop offset="70%" stop-color="#002b3c" stop-opacity="1"></stop></linearGradient></defs><defs><linearGradient id="grad2_0" x1="0%" y1="100%" x2="100%" y2="0%"><stop offset="30%" stop-color="#008c70" stop-opacity="1"></stop><stop offset="70%" stop-color="#008c70" stop-opacity="1"></stop></linearGradient></defs><defs><linearGradient id="grad2_1" x1="0%" y1="100%" x2="100%" y2="0%"><stop offset="30%" stop-color="#00786f" stop-opacity="1"></stop><stop offset="70%" stop-color="#008c70" stop-opacity="1"></stop></linearGradient></defs><defs><linearGradient id="grad2_2" x1="0%" y1="100%" x2="100%" y2="0%"><stop offset="30%" stop-color="#00786f" stop-opacity="1"></stop><stop offset="70%" stop-color="#006469" stop-opacity="1"></stop></linearGradient></defs><defs><linearGradient id="grad2_3" x1="0%" y1="100%" x2="100%" y2="0%"><stop offset="30%" stop-color="#00505e" stop-opacity="1"></stop><stop offset="70%" stop-color="#006469" stop-opacity="1"></stop></linearGradient></defs><defs><linearGradient id="grad2_4" x1="0%" y1="100%" x2="100%" y2="0%"><stop offset="30%" stop-color="#00505e" stop-opacity="1"></stop><stop offset="70%" stop-color="#003d4f" stop-opacity="1"></stop></linearGradient></defs><defs><linearGradient id="grad2_5" x1="0%" y1="100%" x2="100%" y2="0%"><stop offset="30%" stop-color="#002b3c" stop-opacity="1"></stop><stop offset="70%" stop-color="#003d4f" stop-opacity="1"></stop></linearGradient></defs><defs><linearGradient id="grad2_6" x1="0%" y1="100%" x2="100%" y2="0%"><stop offset="30%" stop-color="#002b3c" stop-opacity="1"></stop><stop offset="70%" stop-color="#071a28" stop-opacity="1"></stop></linearGradient></defs><g transform="translate(900, 900)"><path d="M-509.1 0C-497.7 -51 -486.3 -102.1 -471.7 -153.3C-457.1 -204.5 -439.3 -255.8 -408.6 -296.8C-377.8 -337.8 -334 -368.5 -291 -400.5C-247.9 -432.5 -205.7 -465.9 -157.3 -484.2C-109 -502.5 -54.5 -505.8 0 -509.1L0 0Z" fill="#042232"></path><path d="M-436.4 0C-426.6 -43.7 -416.8 -87.5 -404.3 -131.4C-391.8 -175.3 -376.6 -219.3 -350.2 -254.4C-323.8 -289.6 -286.3 -315.8 -249.4 -343.3C-212.5 -370.7 -176.3 -399.3 -134.9 -415C-93.4 -430.7 -46.7 -433.6 0 -436.4L0 0Z" fill="#003446"></path><path d="M-363.7 0C-355.5 -36.5 -347.4 -72.9 -336.9 -109.5C-326.5 -146.1 -313.8 -182.7 -291.8 -212C-269.8 -241.3 -238.6 -263.2 -207.8 -286C-177.1 -308.9 -146.9 -332.8 -112.4 -345.9C-77.8 -359 -38.9 -361.3 0 -363.7L0 0Z" fill="#004757"></path><path d="M-290.9 0C-284.4 -29.2 -277.9 -58.3 -269.6 -87.6C-261.2 -116.8 -251.1 -146.2 -233.5 -169.6C-215.9 -193 -190.8 -210.5 -166.3 -228.8C-141.7 -247.1 -117.5 -266.2 -89.9 -276.7C-62.3 -287.2 -31.1 -289 0 -290.9L0 0Z" fill="#005a64"></path><path d="M-218.2 0C-213.3 -21.9 -208.4 -43.7 -202.2 -65.7C-195.9 -87.6 -188.3 -109.6 -175.1 -127.2C-161.9 -144.8 -143.1 -157.9 -124.7 -171.6C-106.3 -185.3 -88.2 -199.7 -67.4 -207.5C-46.7 -215.4 -23.3 -216.8 0 -218.2L0 0Z" fill="#006e6c"></path><path d="M-145.5 0C-142.2 -14.6 -138.9 -29.2 -134.8 -43.8C-130.6 -58.4 -125.5 -73.1 -116.7 -84.8C-107.9 -96.5 -95.4 -105.3 -83.1 -114.4C-70.8 -123.6 -58.8 -133.1 -45 -138.3C-31.1 -143.6 -15.6 -144.5 0 -145.5L0 0Z" fill="#008270"></path><path d="M-72.7 0C-71.1 -7.3 -69.5 -14.6 -67.4 -21.9C-65.3 -29.2 -62.8 -36.5 -58.4 -42.4C-54 -48.3 -47.7 -52.6 -41.6 -57.2C-35.4 -61.8 -29.4 -66.6 -22.5 -69.2C-15.6 -71.8 -7.8 -72.3 0 -72.7L0 0Z" fill="#008c70"></path></g><g transform="translate(0, 0)"><path d="M509.1 0C497.3 52.1 485.6 104.2 463.2 150.5C440.8 196.8 407.8 237.3 373.8 271.6C339.8 305.8 304.8 333.7 270.4 372.1C236 410.6 202.3 459.6 157.3 484.2C112.4 508.8 56.2 509 0 509.1L0 0Z" fill="#042232"></path><path d="M436.4 0C426.3 44.6 416.2 89.3 397 129C377.8 168.7 349.5 203.4 320.4 232.8C291.2 262.1 261.2 286 231.8 319C202.3 351.9 173.4 394 134.9 415C96.3 436.1 48.2 436.2 0 436.4L0 0Z" fill="#003446"></path><path d="M363.7 0C355.2 37.2 346.8 74.4 330.8 107.5C314.8 140.6 291.3 169.5 267 194C242.7 218.4 217.7 238.3 193.1 265.8C168.6 293.3 144.5 328.3 112.4 345.9C80.3 363.4 40.1 363.5 0 363.7L0 0Z" fill="#004757"></path><path d="M290.9 0C284.2 29.8 277.5 59.5 264.7 86C251.9 112.5 233 135.6 213.6 155.2C194.1 174.7 174.1 190.7 154.5 212.7C134.9 234.6 115.6 262.6 89.9 276.7C64.2 290.7 32.1 290.8 0 290.9L0 0Z" fill="#005a64"></path><path d="M218.2 0C213.1 22.3 208.1 44.6 198.5 64.5C188.9 84.3 174.8 101.7 160.2 116.4C145.6 131 130.6 143 115.9 159.5C101.1 176 86.7 197 67.4 207.5C48.2 218.1 24.1 218.1 0 218.2L0 0Z" fill="#006e6c"></path><path d="M145.5 0C142.1 14.9 138.7 29.8 132.3 43C125.9 56.2 116.5 67.8 106.8 77.6C97.1 87.4 87.1 95.3 77.3 106.3C67.4 117.3 57.8 131.3 45 138.3C32.1 145.4 16.1 145.4 0 145.5L0 0Z" fill="#008270"></path><path d="M72.7 0C71 7.4 69.4 14.9 66.2 21.5C63 28.1 58.3 33.9 53.4 38.8C48.5 43.7 43.5 47.7 38.6 53.2C33.7 58.7 28.9 65.7 22.5 69.2C16.1 72.7 8 72.7 0 72.7L0 0Z" fill="#008c70"></path></g></svg>