<svg id="visual" viewBox="0 0 960 540" width="960" height="540" xmlns="http://www.w3.org/2000/svg" xmlns:xlink="http://www.w3.org/1999/xlink" version="1.1"><rect x="0" y="0" width="960" height="540" fill="#071a28"></rect><defs><linearGradient id="grad1_0" x1="43.8%" y1="100%" x2="100%" y2="0%"><stop offset="14.444444444444446%" stop-color="#00976e" stop-opacity="1"></stop><stop offset="85.55555555555554%" stop-color="#00976e" stop-opacity="1"></stop></linearGradient></defs><defs><linearGradient id="grad1_1" x1="43.8%" y1="100%" x2="100%" y2="0%"><stop offset="14.444444444444446%" stop-color="#00976e" stop-opacity="1"></stop><stop offset="85.55555555555554%" stop-color="#008270" stop-opacity="1"></stop></linearGradient></defs><defs><linearGradient id="grad1_2" x1="43.8%" y1="100%" x2="100%" y2="0%"><stop offset="14.444444444444446%" stop-color="#006c6d" stop-opacity="1"></stop><stop offset="85.55555555555554%" stop-color="#008270" stop-opacity="1"></stop></linearGradient></defs><defs><linearGradient id="grad1_3" x1="43.8%" y1="100%" x2="100%" y2="0%"><stop offset="14.444444444444446%" stop-color="#006c6d" stop-opacity="1"></stop><stop offset="85.55555555555554%" stop-color="#005663" stop-opacity="1"></stop></linearGradient></defs><defs><linearGradient id="grad1_4" x1="43.8%" y1="100%" x2="100%" y2="0%"><stop offset="14.444444444444446%" stop-color="#004153" stop-opacity="1"></stop><stop offset="85.55555555555554%" stop-color="#005663" stop-opacity="1"></stop></linearGradient></defs><defs><linearGradient id="grad1_5" x1="43.8%" y1="100%" x2="100%" y2="0%"><stop offset="14.444444444444446%" stop-color="#004153" stop-opacity="1"></stop><stop offset="85.55555555555554%" stop-color="#002d3f" stop-opacity="1"></stop></linearGradient></defs><defs><linearGradient id="grad1_6" x1="43.8%" y1="100%" x2="100%" y2="0%"><stop offset="14.444444444444446%" stop-color="#071a28" stop-opacity="1"></stop><stop offset="85.55555555555554%" stop-color="#002d3f" stop-opacity="1"></stop></linearGradient></defs><defs><linearGradient id="grad2_0" x1="0%" y1="100%" x2="56.3%" y2="0%"><stop offset="14.444444444444446%" stop-color="#00976e" stop-opacity="1"></stop><stop offset="85.55555555555554%" stop-color="#00976e" stop-opacity="1"></stop></linearGradient></defs><defs><linearGradient id="grad2_1" x1="0%" y1="100%" x2="56.3%" y2="0%"><stop offset="14.444444444444446%" stop-color="#008270" stop-opacity="1"></stop><stop offset="85.55555555555554%" stop-color="#00976e" stop-opacity="1"></stop></linearGradient></defs><defs><linearGradient id="grad2_2" x1="0%" y1="100%" x2="56.3%" y2="0%"><stop offset="14.444444444444446%" stop-color="#008270" stop-opacity="1"></stop><stop offset="85.55555555555554%" stop-color="#006c6d" stop-opacity="1"></stop></linearGradient></defs><defs><linearGradient id="grad2_3" x1="0%" y1="100%" x2="56.3%" y2="0%"><stop offset="14.444444444444446%" stop-color="#005663" stop-opacity="1"></stop><stop offset="85.55555555555554%" stop-color="#006c6d" stop-opacity="1"></stop></linearGradient></defs><defs><linearGradient id="grad2_4" x1="0%" y1="100%" x2="56.3%" y2="0%"><stop offset="14.444444444444446%" stop-color="#005663" stop-opacity="1"></stop><stop offset="85.55555555555554%" stop-color="#004153" stop-opacity="1"></stop></linearGradient></defs><defs><linearGradient id="grad2_5" x1="0%" y1="100%" x2="56.3%" y2="0%"><stop offset="14.444444444444446%" stop-color="#002d3f" stop-opacity="1"></stop><stop offset="85.55555555555554%" stop-color="#004153" stop-opacity="1"></stop></linearGradient></defs><defs><linearGradient id="grad2_6" x1="0%" y1="100%" x2="56.3%" y2="0%"><stop offset="14.444444444444446%" stop-color="#002d3f" stop-opacity="1"></stop><stop offset="85.55555555555554%" stop-color="#071a28" stop-opacity="1"></stop></linearGradient></defs><g transform="translate(960, 540)"><path d="M-432 0C-417.1 -29.9 -402.1 -59.8 -390 -89C-377.8 -118.2 -368.5 -146.6 -353.2 -170.1C-337.8 -193.5 -316.5 -211.9 -304.9 -243.2C-293.4 -274.4 -291.6 -318.4 -269.3 -337.8C-247.1 -357.1 -204.3 -351.7 -171.4 -355.9C-138.5 -360 -115.5 -373.7 -88.6 -388C-61.6 -402.3 -30.8 -417.1 0 -432L0 0Z" fill="#022334"></path><path d="M-370.3 0C-357.5 -25.6 -344.7 -51.3 -334.3 -76.3C-323.9 -101.3 -315.9 -125.7 -302.7 -145.8C-289.6 -165.9 -271.3 -181.7 -261.4 -208.4C-251.5 -235.2 -250 -272.9 -230.9 -289.5C-211.8 -306.1 -175.1 -301.5 -146.9 -305C-118.7 -308.6 -99 -320.4 -75.9 -332.6C-52.8 -344.8 -26.4 -357.6 0 -370.3L0 0Z" fill="#003649"></path><path d="M-308.6 0C-297.9 -21.4 -287.2 -42.7 -278.6 -63.6C-269.9 -84.4 -263.2 -104.7 -252.3 -121.5C-241.3 -138.2 -226 -151.4 -217.8 -173.7C-209.5 -196 -208.3 -227.4 -192.4 -241.3C-176.5 -255.1 -145.9 -251.2 -122.4 -254.2C-98.9 -257.2 -82.5 -267 -63.3 -277.2C-44 -287.4 -22 -298 0 -308.6L0 0Z" fill="#004b5b"></path><path d="M-246.9 0C-238.3 -17.1 -229.8 -34.2 -222.8 -50.9C-215.9 -67.5 -210.6 -83.8 -201.8 -97.2C-193.1 -110.6 -180.8 -121.1 -174.2 -138.9C-167.6 -156.8 -166.6 -182 -153.9 -193C-141.2 -204 -116.7 -201 -97.9 -203.4C-79.1 -205.7 -66 -213.6 -50.6 -221.7C-35.2 -229.9 -17.6 -238.4 0 -246.9L0 0Z" fill="#006168"></path><path d="M-185.1 0C-178.7 -12.8 -172.3 -25.6 -167.1 -38.1C-161.9 -50.7 -157.9 -62.8 -151.4 -72.9C-144.8 -82.9 -135.6 -90.8 -130.7 -104.2C-125.7 -117.6 -125 -136.5 -115.4 -144.8C-105.9 -153 -87.6 -150.7 -73.5 -152.5C-59.4 -154.3 -49.5 -160.2 -38 -166.3C-26.4 -172.4 -13.2 -178.8 0 -185.1L0 0Z" fill="#00776f"></path><path d="M-123.4 0C-119.2 -8.5 -114.9 -17.1 -111.4 -25.4C-108 -33.8 -105.3 -41.9 -100.9 -48.6C-96.5 -55.3 -90.4 -60.6 -87.1 -69.5C-83.8 -78.4 -83.3 -91 -77 -96.5C-70.6 -102 -58.4 -100.5 -49 -101.7C-39.6 -102.9 -33 -106.8 -25.3 -110.9C-17.6 -114.9 -8.8 -119.2 0 -123.4L0 0Z" fill="#008c70"></path><path d="M-61.7 0C-59.6 -4.3 -57.4 -8.5 -55.7 -12.7C-54 -16.9 -52.6 -20.9 -50.5 -24.3C-48.3 -27.6 -45.2 -30.3 -43.6 -34.7C-41.9 -39.2 -41.7 -45.5 -38.5 -48.3C-35.3 -51 -29.2 -50.2 -24.5 -50.8C-19.8 -51.4 -16.5 -53.4 -12.7 -55.4C-8.8 -57.5 -4.4 -59.6 0 -61.7L0 0Z" fill="#00976e"></path></g><g transform="translate(0, 0)"><path d="M432 0C422.2 30.9 412.3 61.8 404.6 92.3C396.9 122.9 391.3 153.1 382 184C372.7 214.8 359.7 246.3 337.8 269.3C315.8 292.3 285 306.8 257.5 322.9C230 339 205.7 356.6 179.2 372.1C152.7 387.6 123.9 400.8 93.7 410.4C63.4 420.1 31.7 426 0 432L0 0Z" fill="#022334"></path><path d="M370.3 0C361.8 26.5 353.4 53 346.8 79.2C340.2 105.3 335.4 131.2 327.4 157.7C319.5 184.1 308.3 211.2 289.5 230.9C270.7 250.6 244.3 263 220.7 276.8C197.1 290.5 176.3 305.7 153.6 318.9C130.9 332.2 106.2 343.6 80.3 351.8C54.4 360.1 27.2 365.2 0 370.3L0 0Z" fill="#003649"></path><path d="M308.6 0C301.5 22.1 294.5 44.1 289 66C283.5 87.8 279.5 109.4 272.9 131.4C266.2 153.4 256.9 176 241.3 192.4C225.6 208.8 203.6 219.2 183.9 230.6C164.3 242.1 146.9 254.7 128 265.8C109.1 276.8 88.5 286.3 66.9 293.2C45.3 300 22.7 304.3 0 308.6L0 0Z" fill="#004b5b"></path><path d="M246.9 0C241.2 17.7 235.6 35.3 231.2 52.8C226.8 70.2 223.6 87.5 218.3 105.1C213 122.8 205.5 140.8 193 153.9C180.5 167.1 162.9 175.3 147.1 184.5C131.4 193.7 117.5 203.8 102.4 212.6C87.2 221.5 70.8 229 53.5 234.5C36.3 240 18.1 243.4 0 246.9L0 0Z" fill="#006168"></path><path d="M185.1 0C180.9 13.2 176.7 26.5 173.4 39.6C170.1 52.7 167.7 65.6 163.7 78.8C159.7 92.1 154.1 105.6 144.8 115.4C135.4 125.3 122.2 131.5 110.4 138.4C98.6 145.3 88.2 152.8 76.8 159.5C65.4 166.1 53.1 171.8 40.1 175.9C27.2 180 13.6 182.6 0 185.1L0 0Z" fill="#00776f"></path><path d="M123.4 0C120.6 8.8 117.8 17.7 115.6 26.4C113.4 35.1 111.8 43.7 109.1 52.6C106.5 61.4 102.8 70.4 96.5 77C90.2 83.5 81.4 87.7 73.6 92.3C65.7 96.8 58.8 101.9 51.2 106.3C43.6 110.7 35.4 114.5 26.8 117.3C18.1 120 9.1 121.7 0 123.4L0 0Z" fill="#008c70"></path><path d="M61.7 0C60.3 4.4 58.9 8.8 57.8 13.2C56.7 17.6 55.9 21.9 54.6 26.3C53.2 30.7 51.4 35.2 48.3 38.5C45.1 41.8 40.7 43.8 36.8 46.1C32.9 48.4 29.4 50.9 25.6 53.2C21.8 55.4 17.7 57.3 13.4 58.6C9.1 60 4.5 60.9 0 61.7L0 0Z" fill="#00976e"></path></g></svg>