<svg id="visual" viewBox="0 0 960 540" width="960" height="540" xmlns="http://www.w3.org/2000/svg" xmlns:xlink="http://www.w3.org/1999/xlink" version="1.1"><rect x="0" y="0" width="960" height="540" fill="#071A28"></rect><defs><linearGradient id="grad1_0" x1="43.8%" y1="100%" x2="100%" y2="0%"><stop offset="14.444444444444446%" stop-color="#008c70" stop-opacity="1"></stop><stop offset="85.55555555555554%" stop-color="#008c70" stop-opacity="1"></stop></linearGradient></defs><defs><linearGradient id="grad1_1" x1="43.8%" y1="100%" x2="100%" y2="0%"><stop offset="14.444444444444446%" stop-color="#008c70" stop-opacity="1"></stop><stop offset="85.55555555555554%" stop-color="#00786f" stop-opacity="1"></stop></linearGradient></defs><defs><linearGradient id="grad1_2" x1="43.8%" y1="100%" x2="100%" y2="0%"><stop offset="14.444444444444446%" stop-color="#006469" stop-opacity="1"></stop><stop offset="85.55555555555554%" stop-color="#00786f" stop-opacity="1"></stop></linearGradient></defs><defs><linearGradient id="grad1_3" x1="43.8%" y1="100%" x2="100%" y2="0%"><stop offset="14.444444444444446%" stop-color="#006469" stop-opacity="1"></stop><stop offset="85.55555555555554%" stop-color="#00505e" stop-opacity="1"></stop></linearGradient></defs><defs><linearGradient id="grad1_4" x1="43.8%" y1="100%" x2="100%" y2="0%"><stop offset="14.444444444444446%" stop-color="#003d4f" stop-opacity="1"></stop><stop offset="85.55555555555554%" stop-color="#00505e" stop-opacity="1"></stop></linearGradient></defs><defs><linearGradient id="grad1_5" x1="43.8%" y1="100%" x2="100%" y2="0%"><stop offset="14.444444444444446%" stop-color="#003d4f" stop-opacity="1"></stop><stop offset="85.55555555555554%" stop-color="#002b3c" stop-opacity="1"></stop></linearGradient></defs><defs><linearGradient id="grad1_6" x1="43.8%" y1="100%" x2="100%" y2="0%"><stop offset="14.444444444444446%" stop-color="#071a28" stop-opacity="1"></stop><stop offset="85.55555555555554%" stop-color="#002b3c" stop-opacity="1"></stop></linearGradient></defs><defs><linearGradient id="grad2_0" x1="0%" y1="100%" x2="56.3%" y2="0%"><stop offset="14.444444444444446%" stop-color="#008c70" stop-opacity="1"></stop><stop offset="85.55555555555554%" stop-color="#008c70" stop-opacity="1"></stop></linearGradient></defs><defs><linearGradient id="grad2_1" x1="0%" y1="100%" x2="56.3%" y2="0%"><stop offset="14.444444444444446%" stop-color="#00786f" stop-opacity="1"></stop><stop offset="85.55555555555554%" stop-color="#008c70" stop-opacity="1"></stop></linearGradient></defs><defs><linearGradient id="grad2_2" x1="0%" y1="100%" x2="56.3%" y2="0%"><stop offset="14.444444444444446%" stop-color="#00786f" stop-opacity="1"></stop><stop offset="85.55555555555554%" stop-color="#006469" stop-opacity="1"></stop></linearGradient></defs><defs><linearGradient id="grad2_3" x1="0%" y1="100%" x2="56.3%" y2="0%"><stop offset="14.444444444444446%" stop-color="#00505e" stop-opacity="1"></stop><stop offset="85.55555555555554%" stop-color="#006469" stop-opacity="1"></stop></linearGradient></defs><defs><linearGradient id="grad2_4" x1="0%" y1="100%" x2="56.3%" y2="0%"><stop offset="14.444444444444446%" stop-color="#00505e" stop-opacity="1"></stop><stop offset="85.55555555555554%" stop-color="#003d4f" stop-opacity="1"></stop></linearGradient></defs><defs><linearGradient id="grad2_5" x1="0%" y1="100%" x2="56.3%" y2="0%"><stop offset="14.444444444444446%" stop-color="#002b3c" stop-opacity="1"></stop><stop offset="85.55555555555554%" stop-color="#003d4f" stop-opacity="1"></stop></linearGradient></defs><defs><linearGradient id="grad2_6" x1="0%" y1="100%" x2="56.3%" y2="0%"><stop offset="14.444444444444446%" stop-color="#002b3c" stop-opacity="1"></stop><stop offset="85.55555555555554%" stop-color="#071a28" stop-opacity="1"></stop></linearGradient></defs><g transform="translate(960, 540)"><path d="M-432 0C-384.3 -39.3 -336.6 -78.6 -322.4 -133.6C-308.3 -188.5 -327.6 -259.2 -305.5 -305.5C-283.3 -351.8 -219.7 -373.8 -161.9 -390.8C-104 -407.8 -52 -419.9 0 -432L0 0Z" fill="#042232"></path><path d="M-370.3 0C-329.4 -33.7 -288.5 -67.4 -276.4 -114.5C-264.2 -161.6 -280.8 -222.1 -261.8 -261.8C-242.9 -301.5 -188.3 -320.4 -138.8 -335C-89.2 -349.6 -44.6 -359.9 0 -370.3L0 0Z" fill="#003446"></path><path d="M-308.6 0C-274.5 -28.1 -240.4 -56.1 -230.3 -95.4C-220.2 -134.7 -234 -185.1 -218.2 -218.2C-202.4 -251.3 -156.9 -267 -115.6 -279.1C-74.3 -291.3 -37.2 -299.9 0 -308.6L0 0Z" fill="#004757"></path><path d="M-246.9 0C-219.6 -22.5 -192.3 -44.9 -184.2 -76.3C-176.1 -107.7 -187.2 -148.1 -174.6 -174.6C-161.9 -201 -125.5 -213.6 -92.5 -223.3C-59.5 -233 -29.7 -240 0 -246.9L0 0Z" fill="#005a64"></path><path d="M-185.1 0C-164.7 -16.8 -144.3 -33.7 -138.2 -57.2C-132.1 -80.8 -140.4 -111.1 -130.9 -130.9C-121.4 -150.8 -94.2 -160.2 -69.4 -167.5C-44.6 -174.8 -22.3 -180 0 -185.1L0 0Z" fill="#006e6c"></path><path d="M-123.4 0C-109.8 -11.2 -96.2 -22.5 -92.1 -38.2C-88.1 -53.9 -93.6 -74 -87.3 -87.3C-81 -100.5 -62.8 -106.8 -46.3 -111.7C-29.7 -116.5 -14.9 -120 0 -123.4L0 0Z" fill="#008270"></path><path d="M-61.7 0C-54.9 -5.6 -48.1 -11.2 -46.1 -19.1C-44 -26.9 -46.8 -37 -43.6 -43.6C-40.5 -50.3 -31.4 -53.4 -23.1 -55.8C-14.9 -58.3 -7.4 -60 0 -61.7L0 0Z" fill="#008c70"></path></g><g transform="translate(0, 0)"><path d="M432 0C401.5 45.2 371 90.3 355.7 147.3C340.4 204.4 340.3 273.2 305.5 305.5C270.6 337.7 201 333.3 144.3 348.3C87.6 363.3 43.8 397.6 0 432L0 0Z" fill="#042232"></path><path d="M370.3 0C344.1 38.7 318 77.4 304.9 126.3C291.8 175.2 291.7 234.2 261.8 261.8C232 289.5 172.3 285.7 123.7 298.5C75.1 311.4 37.5 340.8 0 370.3L0 0Z" fill="#003446"></path><path d="M308.6 0C286.8 32.3 265 64.5 254.1 105.2C243.1 146 243.1 195.2 218.2 218.2C193.3 241.2 143.6 238.1 103.1 248.8C62.5 259.5 31.3 284 0 308.6L0 0Z" fill="#004757"></path><path d="M246.9 0C229.4 25.8 212 51.6 203.3 84.2C194.5 116.8 194.5 156.1 174.6 174.6C154.6 193 114.8 190.5 82.4 199C50 207.6 25 227.2 0 246.9L0 0Z" fill="#005a64"></path><path d="M185.1 0C172.1 19.4 159 38.7 152.4 63.1C145.9 87.6 145.9 117.1 130.9 130.9C116 144.7 86.1 142.9 61.8 149.3C37.5 155.7 18.8 170.4 0 185.1L0 0Z" fill="#006e6c"></path><path d="M123.4 0C114.7 12.9 106 25.8 101.6 42.1C97.3 58.4 97.2 78.1 87.3 87.3C77.3 96.5 57.4 95.2 41.2 99.5C25 103.8 12.5 113.6 0 123.4L0 0Z" fill="#008270"></path><path d="M61.7 0C57.4 6.5 53 12.9 50.8 21C48.6 29.2 48.6 39 43.6 43.6C38.7 48.2 28.7 47.6 20.6 49.8C12.5 51.9 6.3 56.8 0 61.7L0 0Z" fill="#008c70"></path></g></svg>