<svg id="visual" viewBox="0 0 900 900" width="900" height="900" xmlns="http://www.w3.org/2000/svg" xmlns:xlink="http://www.w3.org/1999/xlink" version="1.1"><rect x="0" y="0" width="900" height="900" fill="#071a28"></rect><defs><linearGradient id="grad1_0" x1="0%" y1="100%" x2="100%" y2="0%"><stop offset="30%" stop-color="#00976e" stop-opacity="1"></stop><stop offset="70%" stop-color="#00976e" stop-opacity="1"></stop></linearGradient></defs><defs><linearGradient id="grad1_1" x1="0%" y1="100%" x2="100%" y2="0%"><stop offset="30%" stop-color="#00976e" stop-opacity="1"></stop><stop offset="70%" stop-color="#008270" stop-opacity="1"></stop></linearGradient></defs><defs><linearGradient id="grad1_2" x1="0%" y1="100%" x2="100%" y2="0%"><stop offset="30%" stop-color="#006c6d" stop-opacity="1"></stop><stop offset="70%" stop-color="#008270" stop-opacity="1"></stop></linearGradient></defs><defs><linearGradient id="grad1_3" x1="0%" y1="100%" x2="100%" y2="0%"><stop offset="30%" stop-color="#006c6d" stop-opacity="1"></stop><stop offset="70%" stop-color="#005663" stop-opacity="1"></stop></linearGradient></defs><defs><linearGradient id="grad1_4" x1="0%" y1="100%" x2="100%" y2="0%"><stop offset="30%" stop-color="#004153" stop-opacity="1"></stop><stop offset="70%" stop-color="#005663" stop-opacity="1"></stop></linearGradient></defs><defs><linearGradient id="grad1_5" x1="0%" y1="100%" x2="100%" y2="0%"><stop offset="30%" stop-color="#004153" stop-opacity="1"></stop><stop offset="70%" stop-color="#002d3f" stop-opacity="1"></stop></linearGradient></defs><defs><linearGradient id="grad1_6" x1="0%" y1="100%" x2="100%" y2="0%"><stop offset="30%" stop-color="#071a28" stop-opacity="1"></stop><stop offset="70%" stop-color="#002d3f" stop-opacity="1"></stop></linearGradient></defs><defs><linearGradient id="grad2_0" x1="0%" y1="100%" x2="100%" y2="0%"><stop offset="30%" stop-color="#00976e" stop-opacity="1"></stop><stop offset="70%" stop-color="#00976e" stop-opacity="1"></stop></linearGradient></defs><defs><linearGradient id="grad2_1" x1="0%" y1="100%" x2="100%" y2="0%"><stop offset="30%" stop-color="#008270" stop-opacity="1"></stop><stop offset="70%" stop-color="#00976e" stop-opacity="1"></stop></linearGradient></defs><defs><linearGradient id="grad2_2" x1="0%" y1="100%" x2="100%" y2="0%"><stop offset="30%" stop-color="#008270" stop-opacity="1"></stop><stop offset="70%" stop-color="#006c6d" stop-opacity="1"></stop></linearGradient></defs><defs><linearGradient id="grad2_3" x1="0%" y1="100%" x2="100%" y2="0%"><stop offset="30%" stop-color="#005663" stop-opacity="1"></stop><stop offset="70%" stop-color="#006c6d" stop-opacity="1"></stop></linearGradient></defs><defs><linearGradient id="grad2_4" x1="0%" y1="100%" x2="100%" y2="0%"><stop offset="30%" stop-color="#005663" stop-opacity="1"></stop><stop offset="70%" stop-color="#004153" stop-opacity="1"></stop></linearGradient></defs><defs><linearGradient id="grad2_5" x1="0%" y1="100%" x2="100%" y2="0%"><stop offset="30%" stop-color="#002d3f" stop-opacity="1"></stop><stop offset="70%" stop-color="#004153" stop-opacity="1"></stop></linearGradient></defs><defs><linearGradient id="grad2_6" x1="0%" y1="100%" x2="100%" y2="0%"><stop offset="30%" stop-color="#002d3f" stop-opacity="1"></stop><stop offset="70%" stop-color="#071a28" stop-opacity="1"></stop></linearGradient></defs><g transform="translate(900, 900)"><path d="M-509.1 0C-499 -37 -488.9 -74 -474.8 -108.4C-460.7 -142.7 -442.6 -174.3 -424.4 -204.4C-406.2 -234.4 -387.9 -262.9 -371.4 -296.2C-354.8 -329.4 -340 -367.5 -314.9 -394.8C-289.7 -422.1 -254.1 -438.7 -219.1 -455C-184.1 -471.3 -149.7 -487.4 -113.3 -496.4C-76.9 -505.3 -38.4 -507.2 0 -509.1L0 0Z" fill="#022334"></path><path d="M-436.4 0C-427.7 -31.7 -419.1 -63.5 -407 -92.9C-394.9 -122.3 -379.3 -149.4 -363.7 -175.2C-348.1 -200.9 -332.5 -225.3 -318.3 -253.8C-304.1 -282.4 -291.5 -315 -269.9 -338.4C-248.3 -361.8 -217.8 -376 -187.8 -390C-157.8 -404 -128.3 -417.7 -97.1 -425.4C-65.9 -433.1 -32.9 -434.8 0 -436.4L0 0Z" fill="#003649"></path><path d="M-363.7 0C-356.4 -26.4 -349.2 -52.9 -339.1 -77.4C-329.1 -101.9 -316.1 -124.5 -303.1 -146C-290.1 -167.4 -277.1 -187.8 -265.3 -211.5C-253.5 -235.3 -242.9 -262.5 -224.9 -282C-206.9 -301.5 -181.5 -313.3 -156.5 -325C-131.5 -336.6 -106.9 -348.1 -80.9 -354.5C-54.9 -361 -27.5 -362.3 0 -363.7L0 0Z" fill="#004b5b"></path><path d="M-290.9 0C-285.1 -21.2 -279.4 -42.3 -271.3 -61.9C-263.2 -81.5 -252.9 -99.6 -242.5 -116.8C-232.1 -133.9 -221.7 -150.2 -212.2 -169.2C-202.8 -188.2 -194.3 -210 -179.9 -225.6C-165.5 -241.2 -145.2 -250.7 -125.2 -260C-105.2 -269.3 -85.5 -278.5 -64.7 -283.6C-43.9 -288.8 -22 -289.8 0 -290.9L0 0Z" fill="#006168"></path><path d="M-218.2 0C-213.9 -15.9 -209.5 -31.7 -203.5 -46.4C-197.4 -61.2 -189.7 -74.7 -181.9 -87.6C-174.1 -100.5 -166.2 -112.7 -159.2 -126.9C-152.1 -141.2 -145.7 -157.5 -134.9 -169.2C-124.1 -180.9 -108.9 -188 -93.9 -195C-78.9 -202 -64.2 -208.9 -48.6 -212.7C-32.9 -216.6 -16.5 -217.4 0 -218.2L0 0Z" fill="#00776f"></path><path d="M-145.5 0C-142.6 -10.6 -139.7 -21.2 -135.7 -31C-131.6 -40.8 -126.4 -49.8 -121.2 -58.4C-116 -67 -110.8 -75.1 -106.1 -84.6C-101.4 -94.1 -97.2 -105 -90 -112.8C-82.8 -120.6 -72.6 -125.3 -62.6 -130C-52.6 -134.7 -42.8 -139.2 -32.4 -141.8C-22 -144.4 -11 -144.9 0 -145.5L0 0Z" fill="#008c70"></path><path d="M-72.7 0C-71.3 -5.3 -69.8 -10.6 -67.8 -15.5C-65.8 -20.4 -63.2 -24.9 -60.6 -29.2C-58 -33.5 -55.4 -37.6 -53.1 -42.3C-50.7 -47.1 -48.6 -52.5 -45 -56.4C-41.4 -60.3 -36.3 -62.7 -31.3 -65C-26.3 -67.3 -21.4 -69.6 -16.2 -70.9C-11 -72.2 -5.5 -72.5 0 -72.7L0 0Z" fill="#00976e"></path></g><g transform="translate(0, 0)"><path d="M509.1 0C507.1 38.3 505 76.5 496.4 113.3C487.7 150 472.5 185.3 452.3 217.8C432.1 250.3 406.8 280.1 376.8 300.5C346.8 320.9 312.1 331.9 286.8 359.6C261.6 387.4 245.8 431.8 216.5 449.6C187.2 467.4 144.3 458.6 105.9 464.1C67.6 469.6 33.8 489.3 0 509.1L0 0Z" fill="#022334"></path><path d="M436.4 0C434.6 32.8 432.8 65.6 425.4 97.1C418 128.6 405 158.8 387.7 186.7C370.3 214.6 348.7 240.1 323 257.6C297.3 275.1 267.5 284.5 245.8 308.3C224.2 332 210.7 370.1 185.6 385.4C160.4 400.6 123.7 393.1 90.8 397.8C57.9 402.5 29 419.4 0 436.4L0 0Z" fill="#003649"></path><path d="M363.7 0C362.2 27.3 360.7 54.7 354.5 80.9C348.4 107.2 337.5 132.4 323.1 155.6C308.6 178.8 290.6 200.1 269.2 214.7C247.7 229.2 222.9 237.1 204.9 256.9C186.8 276.7 175.6 308.4 154.6 321.1C133.7 333.8 103.1 327.6 75.7 331.5C48.3 335.4 24.1 349.5 0 363.7L0 0Z" fill="#004b5b"></path><path d="M290.9 0C289.7 21.9 288.6 43.7 283.6 64.7C278.7 85.7 270 105.9 258.4 124.5C246.9 143 232.5 160.1 215.3 171.7C198.2 183.4 178.3 189.7 163.9 205.5C149.5 221.3 140.5 246.7 123.7 256.9C107 267.1 82.4 262 60.5 265.2C38.6 268.3 19.3 279.6 0 290.9L0 0Z" fill="#006168"></path><path d="M218.2 0C217.3 16.4 216.4 32.8 212.7 48.6C209 64.3 202.5 79.4 193.8 93.3C185.2 107.3 174.4 120.1 161.5 128.8C148.6 137.5 133.7 142.3 122.9 154.1C112.1 166 105.4 185 92.8 192.7C80.2 200.3 61.8 196.5 45.4 198.9C29 201.2 14.5 209.7 0 218.2L0 0Z" fill="#00776f"></path><path d="M145.5 0C144.9 10.9 144.3 21.9 141.8 32.4C139.3 42.9 135 52.9 129.2 62.2C123.4 71.5 116.2 80 107.7 85.9C99.1 91.7 89.2 94.8 81.9 102.8C74.7 110.7 70.2 123.4 61.9 128.5C53.5 133.5 41.2 131 30.3 132.6C19.3 134.2 9.7 139.8 0 145.5L0 0Z" fill="#008c70"></path><path d="M72.7 0C72.4 5.5 72.1 10.9 70.9 16.2C69.7 21.4 67.5 26.5 64.6 31.1C61.7 35.8 58.1 40 53.8 42.9C49.5 45.8 44.6 47.4 41 51.4C37.4 55.3 35.1 61.7 30.9 64.2C26.7 66.8 20.6 65.5 15.1 66.3C9.7 67.1 4.8 69.9 0 72.7L0 0Z" fill="#00976e"></path></g></svg>