<svg id="visual" viewBox="0 0 900 900" width="900" height="900" xmlns="http://www.w3.org/2000/svg" xmlns:xlink="http://www.w3.org/1999/xlink" version="1.1"><rect x="0" y="0" width="900" height="900" fill="#071A28"></rect><defs><linearGradient id="grad1_0" x1="0%" y1="100%" x2="100%" y2="0%"><stop offset="30%" stop-color="#008c70" stop-opacity="1"></stop><stop offset="70%" stop-color="#008c70" stop-opacity="1"></stop></linearGradient></defs><defs><linearGradient id="grad1_1" x1="0%" y1="100%" x2="100%" y2="0%"><stop offset="30%" stop-color="#008c70" stop-opacity="1"></stop><stop offset="70%" stop-color="#00786f" stop-opacity="1"></stop></linearGradient></defs><defs><linearGradient id="grad1_2" x1="0%" y1="100%" x2="100%" y2="0%"><stop offset="30%" stop-color="#006469" stop-opacity="1"></stop><stop offset="70%" stop-color="#00786f" stop-opacity="1"></stop></linearGradient></defs><defs><linearGradient id="grad1_3" x1="0%" y1="100%" x2="100%" y2="0%"><stop offset="30%" stop-color="#006469" stop-opacity="1"></stop><stop offset="70%" stop-color="#00505e" stop-opacity="1"></stop></linearGradient></defs><defs><linearGradient id="grad1_4" x1="0%" y1="100%" x2="100%" y2="0%"><stop offset="30%" stop-color="#003d4f" stop-opacity="1"></stop><stop offset="70%" stop-color="#00505e" stop-opacity="1"></stop></linearGradient></defs><defs><linearGradient id="grad1_5" x1="0%" y1="100%" x2="100%" y2="0%"><stop offset="30%" stop-color="#003d4f" stop-opacity="1"></stop><stop offset="70%" stop-color="#002b3c" stop-opacity="1"></stop></linearGradient></defs><defs><linearGradient id="grad1_6" x1="0%" y1="100%" x2="100%" y2="0%"><stop offset="30%" stop-color="#071a28" stop-opacity="1"></stop><stop offset="70%" stop-color="#002b3c" stop-opacity="1"></stop></linearGradient></defs><defs><linearGradient id="grad2_0" x1="0%" y1="100%" x2="100%" y2="0%"><stop offset="30%" stop-color="#008c70" stop-opacity="1"></stop><stop offset="70%" stop-color="#008c70" stop-opacity="1"></stop></linearGradient></defs><defs><linearGradient id="grad2_1" x1="0%" y1="100%" x2="100%" y2="0%"><stop offset="30%" stop-color="#00786f" stop-opacity="1"></stop><stop offset="70%" stop-color="#008c70" stop-opacity="1"></stop></linearGradient></defs><defs><linearGradient id="grad2_2" x1="0%" y1="100%" x2="100%" y2="0%"><stop offset="30%" stop-color="#00786f" stop-opacity="1"></stop><stop offset="70%" stop-color="#006469" stop-opacity="1"></stop></linearGradient></defs><defs><linearGradient id="grad2_3" x1="0%" y1="100%" x2="100%" y2="0%"><stop offset="30%" stop-color="#00505e" stop-opacity="1"></stop><stop offset="70%" stop-color="#006469" stop-opacity="1"></stop></linearGradient></defs><defs><linearGradient id="grad2_4" x1="0%" y1="100%" x2="100%" y2="0%"><stop offset="30%" stop-color="#00505e" stop-opacity="1"></stop><stop offset="70%" stop-color="#003d4f" stop-opacity="1"></stop></linearGradient></defs><defs><linearGradient id="grad2_5" x1="0%" y1="100%" x2="100%" y2="0%"><stop offset="30%" stop-color="#002b3c" stop-opacity="1"></stop><stop offset="70%" stop-color="#003d4f" stop-opacity="1"></stop></linearGradient></defs><defs><linearGradient id="grad2_6" x1="0%" y1="100%" x2="100%" y2="0%"><stop offset="30%" stop-color="#002b3c" stop-opacity="1"></stop><stop offset="70%" stop-color="#071a28" stop-opacity="1"></stop></linearGradient></defs><g transform="translate(900, 900)"><path d="M-509.1 0C-497.7 -68.5 -486.2 -136.9 -452.7 -187.5C-419.2 -238.1 -363.6 -270.8 -320.3 -320.3C-277.1 -369.8 -246.2 -436.1 -194.8 -470.4C-143.5 -504.6 -71.8 -506.9 0 -509.1L0 0Z" fill="#042232"></path><path d="M-436.4 0C-426.6 -58.7 -416.8 -117.4 -388 -160.7C-359.3 -204.1 -311.6 -232.1 -274.6 -274.6C-237.5 -317 -211 -373.8 -167 -403.2C-123 -432.5 -61.5 -434.5 0 -436.4L0 0Z" fill="#003446"></path><path d="M-363.7 0C-355.5 -48.9 -347.3 -97.8 -323.4 -133.9C-299.4 -170.1 -259.7 -193.4 -228.8 -228.8C-197.9 -264.2 -175.8 -311.5 -139.2 -336C-102.5 -360.4 -51.3 -362.1 0 -363.7L0 0Z" fill="#004757"></path><path d="M-290.9 0C-284.4 -39.1 -277.8 -78.2 -258.7 -107.2C-239.5 -136.1 -207.8 -154.8 -183 -183C-158.3 -211.3 -140.7 -249.2 -111.3 -268.8C-82 -288.4 -41 -289.6 0 -290.9L0 0Z" fill="#005a64"></path><path d="M-218.2 0C-213.3 -29.3 -208.4 -58.7 -194 -80.4C-179.6 -102 -155.8 -116.1 -137.3 -137.3C-118.7 -158.5 -105.5 -186.9 -83.5 -201.6C-61.5 -216.3 -30.8 -217.2 0 -218.2L0 0Z" fill="#006e6c"></path><path d="M-145.5 0C-142.2 -19.6 -138.9 -39.1 -129.3 -53.6C-119.8 -68 -103.9 -77.4 -91.5 -91.5C-79.2 -105.7 -70.3 -124.6 -55.7 -134.4C-41 -144.2 -20.5 -144.8 0 -145.5L0 0Z" fill="#008270"></path><path d="M-72.7 0C-71.1 -9.8 -69.5 -19.6 -64.7 -26.8C-59.9 -34 -51.9 -38.7 -45.8 -45.8C-39.6 -52.8 -35.2 -62.3 -27.8 -67.2C-20.5 -72.1 -10.3 -72.4 0 -72.7L0 0Z" fill="#008c70"></path></g><g transform="translate(0, 0)"><path d="M509.1 0C504 70.4 498.9 140.9 466.6 193.3C434.3 245.7 374.8 280 328.1 328.1C281.4 376.2 247.4 437.9 194.8 470.4C142.3 502.8 71.1 506 0 509.1L0 0Z" fill="#042232"></path><path d="M436.4 0C432 60.4 427.6 120.7 399.9 165.6C372.2 210.6 321.3 240 281.2 281.2C241.2 322.4 212 375.4 167 403.2C121.9 431 61 433.7 0 436.4L0 0Z" fill="#003446"></path><path d="M363.7 0C360 50.3 356.3 100.6 333.3 138C310.2 175.5 267.7 200 234.4 234.4C201 268.7 176.7 312.8 139.2 336C101.6 359.2 50.8 361.4 0 363.7L0 0Z" fill="#004757"></path><path d="M290.9 0C288 40.2 285.1 80.5 266.6 110.4C248.2 140.4 214.2 160 187.5 187.5C160.8 214.9 141.4 250.2 111.3 268.8C81.3 287.3 40.6 289.1 0 290.9L0 0Z" fill="#005a64"></path><path d="M218.2 0C216 30.2 213.8 60.4 200 82.8C186.1 105.3 160.6 120 140.6 140.6C120.6 161.2 106 187.7 83.5 201.6C61 215.5 30.5 216.8 0 218.2L0 0Z" fill="#006e6c"></path><path d="M145.5 0C144 20.1 142.5 40.2 133.3 55.2C124.1 70.2 107.1 80 93.7 93.7C80.4 107.5 70.7 125.1 55.7 134.4C40.6 143.7 20.3 144.6 0 145.5L0 0Z" fill="#008270"></path><path d="M72.7 0C72 10.1 71.3 20.1 66.7 27.6C62 35.1 53.5 40 46.9 46.9C40.2 53.7 35.3 62.6 27.8 67.2C20.3 71.8 10.2 72.3 0 72.7L0 0Z" fill="#008c70"></path></g></svg>