<svg id="visual" viewBox="0 0 540 960" width="540" height="960" xmlns="http://www.w3.org/2000/svg" xmlns:xlink="http://www.w3.org/1999/xlink" version="1.1"><rect x="0" y="0" width="540" height="960" fill="#071A28"></rect><defs><linearGradient id="grad1_0" x1="0%" y1="100%" x2="100%" y2="0%"><stop offset="30%" stop-color="#008c70" stop-opacity="1"></stop><stop offset="70%" stop-color="#008c70" stop-opacity="1"></stop></linearGradient></defs><defs><linearGradient id="grad1_1" x1="0%" y1="100%" x2="100%" y2="0%"><stop offset="30%" stop-color="#008c70" stop-opacity="1"></stop><stop offset="70%" stop-color="#006469" stop-opacity="1"></stop></linearGradient></defs><defs><linearGradient id="grad1_2" x1="0%" y1="100%" x2="100%" y2="0%"><stop offset="30%" stop-color="#003d4f" stop-opacity="1"></stop><stop offset="70%" stop-color="#006469" stop-opacity="1"></stop></linearGradient></defs><defs><linearGradient id="grad1_3" x1="0%" y1="100%" x2="100%" y2="0%"><stop offset="30%" stop-color="#003d4f" stop-opacity="1"></stop><stop offset="70%" stop-color="#071a28" stop-opacity="1"></stop></linearGradient></defs><defs><linearGradient id="grad2_0" x1="0%" y1="100%" x2="100%" y2="0%"><stop offset="30%" stop-color="#008c70" stop-opacity="1"></stop><stop offset="70%" stop-color="#008c70" stop-opacity="1"></stop></linearGradient></defs><defs><linearGradient id="grad2_1" x1="0%" y1="100%" x2="100%" y2="0%"><stop offset="30%" stop-color="#006469" stop-opacity="1"></stop><stop offset="70%" stop-color="#008c70" stop-opacity="1"></stop></linearGradient></defs><defs><linearGradient id="grad2_2" x1="0%" y1="100%" x2="100%" y2="0%"><stop offset="30%" stop-color="#006469" stop-opacity="1"></stop><stop offset="70%" stop-color="#003d4f" stop-opacity="1"></stop></linearGradient></defs><defs><linearGradient id="grad2_3" x1="0%" y1="100%" x2="100%" y2="0%"><stop offset="30%" stop-color="#071a28" stop-opacity="1"></stop><stop offset="70%" stop-color="#003d4f" stop-opacity="1"></stop></linearGradient></defs><g transform="translate(540, 960)"><path d="M-324 0C-321 -34.5 -318.1 -69 -304.3 -98.9C-290.6 -128.7 -266.1 -153.9 -243.5 -176.9C-220.9 -199.9 -200.2 -220.7 -177.5 -244.3C-154.8 -267.9 -130 -294.4 -100.1 -308.1C-70.2 -321.9 -35.1 -322.9 0 -324L0 0Z" fill="#002b3c"></path><path d="M-243 0C-240.8 -25.9 -238.6 -51.8 -228.3 -74.2C-218 -96.6 -199.6 -115.4 -182.6 -132.7C-165.7 -149.9 -150.2 -165.5 -133.1 -183.2C-116.1 -201 -97.5 -220.8 -75.1 -231.1C-52.6 -241.4 -26.3 -242.2 0 -243L0 0Z" fill="#00505e"></path><path d="M-162 0C-160.5 -17.3 -159 -34.5 -152.2 -49.4C-145.3 -64.4 -133.1 -77 -121.8 -88.5C-110.5 -100 -100.1 -110.4 -88.8 -122.2C-77.4 -134 -65 -147.2 -50.1 -154.1C-35.1 -160.9 -17.5 -161.5 0 -162L0 0Z" fill="#00786f"></path><path d="M-81 0C-80.3 -8.6 -79.5 -17.3 -76.1 -24.7C-72.7 -32.2 -66.5 -38.5 -60.9 -44.2C-55.2 -50 -50.1 -55.2 -44.4 -61.1C-38.7 -67 -32.5 -73.6 -25 -77C-17.5 -80.5 -8.8 -80.7 0 -81L0 0Z" fill="#008c70"></path></g><g transform="translate(0, 0)"><path d="M324 0C308.3 29.7 292.6 59.3 282.5 91.8C272.4 124.2 267.9 159.5 247.6 179.9C227.2 200.3 191.1 205.9 165.8 228.1C140.4 250.4 125.9 289.4 100.1 308.1C74.3 326.9 37.2 325.4 0 324L0 0Z" fill="#002b3c"></path><path d="M243 0C231.2 22.2 219.4 44.5 211.8 68.8C204.3 93.2 200.9 119.6 185.7 134.9C170.4 150.2 143.3 154.4 124.3 171.1C105.3 187.8 94.5 217 75.1 231.1C55.7 245.2 27.9 244.1 0 243L0 0Z" fill="#00505e"></path><path d="M162 0C154.1 14.8 146.3 29.7 141.2 45.9C136.2 62.1 133.9 79.7 123.8 89.9C113.6 100.1 95.5 102.9 82.9 114.1C70.2 125.2 63 144.7 50.1 154.1C37.2 163.4 18.6 162.7 0 162L0 0Z" fill="#00786f"></path><path d="M81 0C77.1 7.4 73.1 14.8 70.6 22.9C68.1 31.1 67 39.9 61.9 45C56.8 50.1 47.8 51.5 41.4 57C35.1 62.6 31.5 72.3 25 77C18.6 81.7 9.3 81.4 0 81L0 0Z" fill="#008c70"></path></g></svg>