<?xml version="1.0" encoding="utf-8"?>
<!-- Generator: Adobe Illustrator 26.4.1, SVG Export Plug-In . SVG Version: 6.00 Build 0)  -->
<svg version="1.1" id="Capa_1" xmlns="http://www.w3.org/2000/svg" xmlns:xlink="http://www.w3.org/1999/xlink" x="0px" y="0px"
	 viewBox="0 0 1009.6 681.6" style="enable-background:new 0 0 1009.6 681.6;" xml:space="preserve">
<style type="text/css">
	.st0{fill:#C1923E;}
	.st1{fill:#006168;}
	.st2{fill:#FFFFFA;}
	.st3{fill:#E4E12F;}
	.st4{fill:#02877A;}
	.st5{fill:#036C84;}
	.st6{fill:#071A28;}
	.st7{fill:#5B480B;}
</style>
<path class="st0" d="M282,417.2L392,529.4l-56.5,25l-94.9-101.6c-13.9-0.8-28.4-7.9-39.3-20.5c-19-22.1-19.6-52.7-1.4-68.5
	c18.3-15.7,48.5-10.6,67.5,11.5C278.4,388,283.2,403.4,282,417.2L282,417.2z"/>
<polygon class="st1" points="125.1,588.1 0,681.6 1009.6,681.6 916.9,588.9 "/>
<path class="st2" d="M940.7,618.8L857,649.9l-127.4-4.8c0,0,79.9-33.7,102.5-34.1C854.8,610.8,908.3,613.7,940.7,618.8L940.7,618.8z
	"/>
<path class="st0" d="M624.1,168c12.8-45.5-10.7-93.7-52.6-107.7c-41.9-14-86.2,11.6-99.1,57.1c-10.4,36.9,3.1,75.6,30.9,96.4
	l-54.4,127l243.8-17c0,0-108.7-79.1-114.6-103.1c8.3-2.7,8.7-2,15.8-7.4C607.9,202.6,618.8,187.1,624.1,168L624.1,168z"/>
<path class="st3" d="M693.1,291.7l20-9.2c0,0,22.9,2.9,29.7,28.7c6.8,25.8,38,164,38,164s18.2,18,7.8,42.8c0,0,3.6,27.5-7.8,31.6
	s-88,63.3-88,63.3L693.1,291.7L693.1,291.7z"/>
<path class="st3" d="M632.8,255.6l-50.6-28.3c-11.9,59.4-74.7,59.4-86.6,0l-38.1,28.3l-80.3,26.8l11.7,311.4l163-0.5l0,0.5h149.5
	l11.7-311.4L632.8,255.6L632.8,255.6z"/>
<path class="st3" d="M397.3,291.7l-20-9.2c0,0-22.9,2.9-29.7,28.7c-6.8,25.8,5.8,175,5.8,175s-18.2,18-7.8,42.8
	c0,0-3.6,27.5,7.8,31.6s43.9,6,43.9,6L397.3,291.7L397.3,291.7z"/>
<path class="st3" d="M362.6,457.2l-37.4-1l-27.3-26.8c0,0-24.6,40.2-43.8,42.8c0,0,51.3,99.5,99.3,88.4l16.4-76.4L362.6,457.2
	L362.6,457.2z"/>
<path class="st4" d="M705.8,627.2h-335c-9.4,0-17.2-7.1-18.1-16.4L332,399.6c-0.5-5.1,1.2-10.2,4.6-14c3.4-3.8,8.4-6,13.5-6h378.3
	c5.2,0,10.1,2.2,13.5,6c3.4,3.8,5.1,9,4.6,14.1l-22.6,211.2C722.9,620.2,715.1,627.2,705.8,627.2L705.8,627.2z"/>
<polygon class="st5" points="278.7,472.8 223.9,472.8 204.2,339.1 289.6,339.1 "/>
<polygon class="st6" points="823.2,600.8 750.6,600.8 739.9,605.5 784.7,642.2 869.9,644.6 869.4,633.4 "/>
<path class="st2" d="M329.6,631.9l-83.7,31.2l-127.4-4.8c0,0,79.9-33.7,102.5-34.1C243.6,623.9,297.2,626.8,329.6,631.9L329.6,631.9
	z"/>
<path class="st2" d="M312,621l-83.7,31.2l-127.4-4.8c0,0,79.9-33.7,102.5-34.1C226.1,613,279.7,615.9,312,621L312,621z"/>
<path class="st7" d="M476.7,113l1.3,39l-7.6,10.2c0,0-62.4-121,15.2-143.4c0,0-7.6-10.2,3.4-13.6s114.9-19.7,123.2,31.2
	c0,0,14.9-2.7,18.9,44.8l-7.1,67.6l-10.8,0.6c0,0,0.7-75-26.1-72.3c-12.6,1.3-52.9,9.7-76.9,5.6C483.6,78.1,476.7,113,476.7,113z"/>
<path class="st7" d="M625.8,140c0,0-7.3,32.2-10.5,56.1c-16.1,19.1-40.1,31.2-67,31.2c-32.5,0-60.8-17.7-76-43.9
	c-0.8-12-6.3-30.7-6.3-30.7c0.5,8.7,9.4-8.1,12-0.8c6.2,17.1,22.1,41.5,22.1,41.5s15.2-9.2,40-10.1c24.8-0.9,47.2,10.6,47.2,10.6
	c17.3-1.4,25.8-53.7,25.8-53.7L625.8,140L625.8,140z"/>
</svg>
